<?xml version="1.0" encoding="UTF-8" standalone="no"?>
<!-- Generator: Adobe Illustrator 23.0.4, SVG Export Plug-In . SVG Version: 6.00 Build 0)  -->

<svg
   version="1.1"
   id="svg2"
   x="0px"
   y="0px"
   viewBox="0 0 126.5 204.3"
   xml:space="preserve"
   sodipodi:docname="DeviantArt_Logo.svg"
   width="126.5"
   height="204.3"
   inkscape:version="1.1 (c4e8f9ed74, 2021-05-24)"
   xmlns:inkscape="http://www.inkscape.org/namespaces/inkscape"
   xmlns:sodipodi="http://sodipodi.sourceforge.net/DTD/sodipodi-0.dtd"
   xmlns="http://www.w3.org/2000/svg"
   xmlns:svg="http://www.w3.org/2000/svg"
   xmlns:rdf="http://www.w3.org/1999/02/22-rdf-syntax-ns#"
   xmlns:cc="http://creativecommons.org/ns#"
   xmlns:dc="http://purl.org/dc/elements/1.1/"
   xmlns:ns="&amp;ns_sfw;"><defs
   id="defs89" />
<style
   type="text/css"
   id="style2">
	.st0{fill:#24E39D;}
	.st1{display:none;}
	.st2{display:inline;fill:none;stroke:#868686;stroke-width:0.4;stroke-miterlimit:10;stroke-dasharray:2;}
	.st3{display:inline;fill:none;stroke:#9C9B9B;stroke-width:0.25;stroke-miterlimit:10;stroke-dasharray:2;}
	.st4{display:inline;fill:none;stroke:#868686;stroke-width:0.2;stroke-miterlimit:10;stroke-dasharray:2;}
	.st5{display:inline;}
	.st6{fill:#6F6F6E;}
	.st7{fill:none;stroke:#6F6F6E;stroke-width:0.5;stroke-miterlimit:10;}
	.st8{display:inline;fill:#D9D9D9;}
</style>
<metadata
   id="metadata174">
	<rdf:RDF>
		<cc:Work
   rdf:about="">
			<dc:format>image/svg+xml</dc:format>
			<dc:type
   rdf:resource="http://purl.org/dc/dcmitype/StillImage" />
			<dc:title />
		</cc:Work>
	</rdf:RDF>
	<ns:sfw>
		<ns:slices />
		<ns:sliceSourceBounds
   bottomLeftOrigin="true"
   height="372.2"
   width="962.9"
   x="-7.3"
   y="0" />
	</ns:sfw>
</metadata>
<sodipodi:namedview
   bordercolor="#666666"
   borderopacity="1"
   gridtolerance="10"
   guidetolerance="10"
   id="namedview170"
   inkscape:current-layer="svg2"
   inkscape:cx="137.53227"
   inkscape:cy="78.488853"
   inkscape:pageopacity="0"
   inkscape:pageshadow="2"
   inkscape:window-height="1038"
   inkscape:window-maximized="1"
   inkscape:window-width="1920"
   inkscape:window-x="0"
   inkscape:window-y="42"
   inkscape:zoom="1.4142136"
   objecttolerance="10"
   pagecolor="#ffffff"
   showgrid="false"
   inkscape:pagecheckerboard="0">
	</sodipodi:namedview>
<polygon
   id="polygon8"
   class="st0"
   points="58.4,167.2 63.9,163.5 126.5,163.5 126.5,112.4 92.1,112.4 89,108.7 126.5,37.2 126.5,0 126.4,0 89.3,0 85.6,3.7 68.1,37.2 62.6,40.9 0,40.9 0,91.9 34.4,91.9 37.5,95.6 0,167.2 0,204.3 0,204.3 37.1,204.3 40.9,200.6 " />
<g
   id="g10"
   transform="translate(-93.684,-96.905999)">
	<path
   id="path12"
   inkscape:connector-curvature="0"
   d="m 293.8,209.3 -48.1,91.9 h 28.5 l 7,-13.4 h 32.2 l 3.2,13.4 h 28.5 l -22,-91.9 z m -1.1,56.5 10.6,-20.1 4.9,20.1 z" />
	<path
   id="path14"
   inkscape:connector-curvature="0"
   d="m 428.2,242.6 c 0,-21.1 -14.3,-33.3 -34.3,-33.3 h -43.5 v 91.9 h 27.5 v -26.8 h 6.7 5.5 l 13.3,26.8 h 28.5 l -17,-32.4 c 8.2,-5.3 13.3,-14.3 13.3,-26.2 z M 390,252.3 H 377.8 V 233.7 H 390 c 7.4,0 10.2,3.7 10.2,9.4 0,5.5 -2.8,9.2 -10.2,9.2 z" />
	<polygon
   id="polygon16"
   points="509.2,233.7 521.9,209.3 432.2,209.3 432.2,233.7 458.2,233.7 458.2,301.2 473.8,301.2 485.7,278.6 485.7,233.7 " />
</g>
<g
   id="g18"
   transform="translate(-93.684,-96.905999)">
	<rect
   id="rect20"
   x="586.20001"
   y="96.900002"
   width="27.5"
   height="91.900002" />
	<path
   id="path22"
   inkscape:connector-curvature="0"
   d="m 352.6,97 -12.3,23.6 h 7.6 c 13.5,0 22.1,8.6 22.1,22.3 0,13.5 -8.6,22.2 -22.1,22.2 h -8.6 v -42.6 l -26.6,50.7 v 15.7 h 37 c 29.8,0 47.3,-18 47.3,-45.9 0,-27.2 -16.4,-44.9 -44.4,-46 z" />
	<polygon
   id="polygon24"
   points="431.7,154.5 470.9,154.5 470.9,131.2 431.7,131.2 431.7,121.3 474.4,121.3 474.4,96.9 404.3,96.9 404.3,188.8 474.4,188.8 474.4,164.4 431.7,164.4 " />
	<polygon
   id="polygon26"
   points="481.4,96.9 503.4,188.8 532.7,188.8 580.8,96.9 552.3,96.9 523.2,152.5 509.9,96.9 " />
	<polygon
   id="polygon28"
   points="891.7,121.3 904.5,96.9 814.8,96.9 814.8,121.3 840.7,121.3 840.7,188.8 856.4,188.8 868.2,166.2 868.2,121.3 " />
	<path
   id="path30"
   inkscape:connector-curvature="0"
   d="M 667.1,96.9 619,188.8 h 28.5 l 7,-13.4 h 32.2 l 3.2,13.4 h 28.5 l -22,-91.9 z m -1.1,56.4 10.5,-20.1 4.9,20.1 z" />
	<polygon
   id="polygon32"
   points="785.1,188.8 808.9,188.8 808.9,96.9 781.4,96.9 781.4,140.4 750.7,96.9 723.6,96.9 723.6,188.8 751,188.8 751,142.1 " />
</g>
<g
   id="Construction"
   transform="translate(0,-191.65601)"
   class="st1">
	<line
   id="line35"
   class="st2"
   x1="225.10001"
   y1="340.39999"
   x2="372.89999"
   y2="58.299999" />
	<line
   id="line37"
   class="st2"
   x1="453.29999"
   y1="340.39999"
   x2="601.09998"
   y2="58.299999" />
	<line
   id="line39"
   class="st2"
   x1="539.59998"
   y1="340.39999"
   x2="687.29999"
   y2="58.599998" />
	<line
   id="line41"
   class="st2"
   x1="776.90002"
   y1="340.39999"
   x2="924.70001"
   y2="58.299999" />
	<line
   id="line43"
   class="st2"
   x1="110.9"
   y1="342.5"
   x2="259.79999"
   y2="58.299999" />
	<line
   id="line45"
   class="st2"
   x1="52.599998"
   y1="342.5"
   x2="201.39999"
   y2="58.299999" />
	<line
   id="line47"
   class="st3"
   x1="67.099998"
   y1="188.8"
   x2="921.70001"
   y2="188.8" />
	<line
   id="line49"
   class="st3"
   x1="67.099998"
   y1="96.900002"
   x2="921.70001"
   y2="96.900002" />
	<line
   id="line51"
   class="st3"
   x1="67.099998"
   y1="301.20001"
   x2="921.70001"
   y2="301.20001" />
	<line
   id="line53"
   class="st3"
   x1="67.099998"
   y1="209.3"
   x2="921.70001"
   y2="209.3" />
	<line
   id="line55"
   class="st4"
   x1="354.5"
   y1="340.39999"
   x2="287.10001"
   y2="58.299999" />
	<line
   id="line57"
   class="st4"
   x1="539.59998"
   y1="340.39999"
   x2="472.70001"
   y2="60.099998" />
	<line
   id="line59"
   class="st4"
   x1="754.5"
   y1="340.39999"
   x2="687.20001"
   y2="58.299999" />
</g>
<g
   id="Guidelines"
   transform="translate(0,-191.65601)"
   class="st1">
	<line
   id="line62"
   class="st3"
   x1="27.1"
   y1="188.8"
   x2="904.5"
   y2="188.8" />
	<line
   id="line64"
   class="st3"
   x1="27.1"
   y1="137.8"
   x2="93.699997"
   y2="137.8" />
	<line
   id="line66"
   class="st3"
   x1="220.10001"
   y1="96.900002"
   x2="220.10001"
   y2="364.5" />
	<line
   id="line68"
   class="st3"
   x1="245.60001"
   y1="96.900002"
   x2="245.60001"
   y2="364.5" />
	<g
   id="g70"
   class="st5">
		<path
   id="path72"
   inkscape:connector-curvature="0"
   class="st6"
   d="m -0.3,163.6 3.7,5.7 H 0.2 l -2.2,-3.4 -2.2,3.4 h -3.2 l 3.7,-5.7 -3.5,-5.4 H -4 l 2,3.2 2.1,-3.2 h 3.1 c 0.1,0 -3.5,5.4 -3.5,5.4 z" />
	</g>
	<g
   id="g74"
   class="st5">
		<g
   id="g76">
			<line
   id="line78"
   class="st7"
   x1="12.8"
   y1="139"
   x2="12.8"
   y2="187.8" />
			<g
   id="g80">
				<circle
   id="circle82"
   class="st6"
   cx="12.8"
   cy="139.10001"
   r="1.3" />
			</g>
			<g
   id="g84">
				<circle
   id="circle86"
   class="st6"
   cx="12.8"
   cy="187.7"
   r="1.3" />
			</g>
		</g>
	</g>
	<g
   id="g88"
   class="st5">
		<path
   id="path90"
   inkscape:connector-curvature="0"
   class="st6"
   d="m 215.7,386 c 0,-3.4 1.9,-5.7 4.6,-5.7 2.7,0 4.6,2.3 4.6,5.7 0,3.4 -1.9,5.7 -4.6,5.7 -2.7,0 -4.6,-2.3 -4.6,-5.7 z m 2.8,0 c 0,1.7 0.5,3.2 1.8,3.2 1.3,0 1.8,-1.5 1.8,-3.2 0,-1.7 -0.5,-3.2 -1.8,-3.2 -1.3,0 -1.8,1.5 -1.8,3.2 z" />
		<path
   id="path92"
   inkscape:connector-curvature="0"
   class="st6"
   d="m 226.8,388.3 c 0.9,0 1.7,0.7 1.7,1.7 0,1 -0.7,1.7 -1.7,1.7 -0.9,0 -1.7,-0.7 -1.7,-1.7 0.1,-1 0.8,-1.7 1.7,-1.7 z" />
		<path
   id="path94"
   inkscape:connector-curvature="0"
   class="st6"
   d="m 232.1,387.1 h -2.3 v -6.6 h 6.8 v 2.5 h -4.5 v 1.7 c 0.3,-0.2 1,-0.4 1.7,-0.4 2.2,0 3.6,1.5 3.6,3.7 0,2.3 -1.6,3.8 -4,3.8 -2.5,0 -4.1,-1.5 -4.2,-3.7 h 2.8 c 0.1,0.8 0.6,1.3 1.4,1.3 0.8,0 1.3,-0.6 1.3,-1.4 0,-0.8 -0.5,-1.4 -1.3,-1.4 -0.6,-0.1 -1,0.2 -1.3,0.5 z" />
		<path
   id="path96"
   inkscape:connector-curvature="0"
   class="st6"
   d="m 248.5,385.9 3.7,5.7 H 249 l -2.2,-3.4 -2.2,3.4 h -3.2 l 3.7,-5.7 -3.5,-5.4 h 3.2 l 2,3.1 2.1,-3.1 h 3.1 z" />
	</g>
	<g
   id="g98"
   class="st5">
		<g
   id="g100">
			<line
   id="line102"
   class="st7"
   x1="221.3"
   y1="368.79999"
   x2="245.10001"
   y2="368.79999" />
			<g
   id="g104">
				<circle
   id="circle106"
   class="st6"
   cx="221.39999"
   cy="368.79999"
   r="1.3" />
			</g>
			<g
   id="g108">
				<circle
   id="circle110"
   class="st6"
   cx="245.10001"
   cy="368.79999"
   r="1.3" />
			</g>
		</g>
	</g>
	<g
   id="g112"
   class="st5">
		<g
   id="g114">
			<line
   id="line116"
   class="st7"
   x1="38.099998"
   y1="47"
   x2="38.099998"
   y2="95.800003" />
			<g
   id="g118">
				<circle
   id="circle120"
   class="st6"
   cx="38.099998"
   cy="47.099998"
   r="1.3" />
			</g>
			<g
   id="g122">
				<circle
   id="circle124"
   class="st6"
   cx="38.099998"
   cy="95.699997"
   r="1.3" />
			</g>
		</g>
	</g>
	<g
   id="g126"
   class="st5">
		<path
   id="path128"
   inkscape:connector-curvature="0"
   class="st6"
   d="m 70.1,29.2 3.7,5.7 h -3.2 l -2.2,-3.4 -2.2,3.4 H 63 l 3.7,-5.7 -3.5,-5.4 h 3.2 l 2,3.2 2.1,-3.2 h 3.1 c 0,0 -3.5,5.4 -3.5,5.4 z" />
	</g>
	<g
   id="g130"
   class="st5">
		<path
   id="path132"
   inkscape:connector-curvature="0"
   class="st6"
   d="M 26.6,70.3 30.3,76 H 27.1 L 24.9,72.6 22.7,76 h -3.2 l 3.7,-5.7 -3.5,-5.4 h 3.2 l 2,3.2 2.1,-3.2 h 3.1 c 0,0 -3.5,5.4 -3.5,5.4 z" />
	</g>
	<g
   id="g134"
   class="st5">
		<g
   id="g136">
			<line
   id="line138"
   class="st7"
   x1="92.5"
   y1="41.5"
   x2="43.799999"
   y2="41.5" />
			<g
   id="g140">
				<circle
   id="circle142"
   class="st6"
   cx="92.5"
   cy="41.5"
   r="1.3" />
			</g>
			<g
   id="g144">
				<circle
   id="circle146"
   class="st6"
   cx="43.900002"
   cy="41.5"
   r="1.3" />
			</g>
		</g>
	</g>
	<rect
   id="rect148"
   x="16.799999"
   y="137.89999"
   class="st8"
   width="8.1000004"
   height="51" />
	<rect
   id="rect150"
   x="93.699997"
   y="45.900002"
   class="st8"
   width="8.1000004"
   height="51" />
	<rect
   id="rect152"
   x="896.29999"
   y="45.900002"
   class="st8"
   width="8.1000004"
   height="51" />
	<rect
   id="rect154"
   x="93.699997"
   y="301.20001"
   class="st8"
   width="8.1000004"
   height="51" />
	<rect
   id="rect156"
   x="896.29999"
   y="301.20001"
   class="st8"
   width="8.1000004"
   height="51" />
	<rect
   id="rect158"
   x="42.700001"
   y="96.900002"
   class="st8"
   width="51"
   height="8.1000004" />
	<rect
   id="rect160"
   x="42.700001"
   y="293.10001"
   class="st8"
   width="51"
   height="8.1000004" />
	<rect
   id="rect162"
   x="904.5"
   y="96.900002"
   class="st8"
   width="51"
   height="8.1000004" />
	<rect
   id="rect164"
   x="904.5"
   y="293.10001"
   class="st8"
   width="51"
   height="8.1000004" />
	<rect
   id="rect166"
   x="93.699997"
   y="96.900002"
   class="st3"
   width="810.79999"
   height="204.3" />
	<rect
   id="rect168"
   x="42.700001"
   y="45.900002"
   class="st3"
   width="912.79999"
   height="306.39999" />
</g>
</svg>
