<?xml version="1.0" encoding="UTF-8" standalone="no"?>
<!-- Created with Inkscape (http://www.inkscape.org/) -->

<svg
   version="1.1"
   id="svg2"
   width="405.42148"
   height="405.50299"
   viewBox="0 0 405.42147 405.50299"
   sodipodi:docname="linkedin.svg"
   inkscape:version="1.1.1 (3bf5ae0d25, 2021-09-20)"
   xmlns:inkscape="http://www.inkscape.org/namespaces/inkscape"
   xmlns:sodipodi="http://sodipodi.sourceforge.net/DTD/sodipodi-0.dtd"
   xmlns="http://www.w3.org/2000/svg"
   xmlns:svg="http://www.w3.org/2000/svg">
  <defs
     id="defs6" />
  <sodipodi:namedview
     id="namedview4"
     pagecolor="#505050"
     bordercolor="#eeeeee"
     borderopacity="1"
     inkscape:pageshadow="0"
     inkscape:pageopacity="0"
     inkscape:pagecheckerboard="0"
     showgrid="false"
     inkscape:zoom="1.4142136"
     inkscape:cx="211.07137"
     inkscape:cy="210.01071"
     inkscape:window-width="1920"
     inkscape:window-height="1038"
     inkscape:window-x="0"
     inkscape:window-y="42"
     inkscape:window-maximized="1"
     inkscape:current-layer="g8" />
  <g
     inkscape:groupmode="layer"
     inkscape:label="Image"
     id="g8"
     transform="translate(-0.50598138,-0.13364668)">
    <rect
       style="font-variation-settings:normal;opacity:1;vector-effect:none;fill:#d5f6ff;fill-opacity:1;fill-rule:evenodd;stroke:#f2f2f2;stroke-width:2.83465;stroke-linecap:butt;stroke-linejoin:miter;stroke-miterlimit:4;stroke-dasharray:none;stroke-dashoffset:0;stroke-opacity:1;-inkscape-stroke:none;stop-color:#000000;stop-opacity:1"
       id="rect12922"
       width="344.78436"
       height="342.72842"
       x="33.418091"
       y="32.781403" />
    <path
       style="fill:#0077b7;fill-opacity:1;stroke-width:0.793388"
       d="M 33.034906,405.3973 C 19.076333,404.0619 6.9978452,394.03415 1.9697595,379.60654 0.56434178,375.57383 0.50598138,368.52637 0.50598138,202.84438 0.50598138,37.162397 0.56434178,30.114946 1.9697595,26.082234 6.2271108,13.866168 14.238503,5.8547761 26.454569,1.5974248 30.487281,0.19200708 37.534732,0.13364668 203.21672,0.13364668 c 165.68199,0 172.72945,0.05836 176.76216,1.46377812 12.21606,4.2573513 20.22745,12.2687432 24.48481,24.4848092 1.40541,4.032712 1.46378,11.080163 1.46378,176.762146 0,165.68199 -0.0584,172.72945 -1.46378,176.76216 -4.18137,11.99802 -11.75105,19.69972 -24.03716,24.45633 -3.72799,1.4433 -9.43737,1.49464 -174.03625,1.56514 -93.6,0.0401 -171.609919,-0.0637 -173.355374,-0.23071 z m 88.207654,-45.9151 c 1.23124,-0.90375 2.86287,-2.86738 3.62583,-4.36363 1.29825,-2.54604 1.38727,-8.94083 1.38843,-99.73769 10e-4,-105.17744 0.21994,-99.91293 -4.32306,-104.10674 l -2.14862,-1.98347 -26.496342,-0.22869 c -29.369846,-0.25349 -29.858761,-0.18176 -32.914111,4.82919 -1.514078,2.48317 -1.548792,4.74709 -1.551691,101.19444 -0.0033,109.94733 -0.455595,101.28765 5.471579,104.76077 2.768062,1.62199 3.654624,1.66746 28.782689,1.47627 24.809086,-0.18877 26.023156,-0.2681 28.165296,-1.84045 z m 96.79956,0.49258 c 4.7918,-2.92177 4.57516,-0.26173 5.04329,-61.92378 l 0.43067,-56.72728 2.0379,-6.81526 c 6.91784,-23.13501 21.3922,-33.64245 41.51611,-30.13802 10.50073,1.82861 17.39378,7.13265 22.24711,17.11857 5.3371,10.98128 5.34227,11.04826 5.86141,75.9039 l 0.46787,58.44935 1.86349,1.98272 c 3.43659,3.65647 4.52419,3.77198 33.2326,3.52931 l 27.08265,-0.22892 2.449,-2.34721 c 1.34695,-1.29097 2.83071,-3.62129 3.29725,-5.17847 1.18598,-3.95842 0.46225,-119.67964 -0.81631,-130.5239 -3.23038,-27.39911 -10.3482,-45.27093 -23.25209,-58.38265 -7.97946,-8.10796 -19.57385,-14.24827 -32.33306,-17.12334 -7.52861,-1.69645 -27.91053,-2.28173 -36.7645,-1.05573 -8.97506,1.24277 -21.09811,5.16161 -27.17595,8.78475 -5.35988,3.19517 -12.85021,9.87699 -17.13588,15.28623 l -3.04224,3.83984 v -8.83791 c 0,-9.78253 -0.77129,-12.26578 -4.67249,-15.04368 -2.23353,-1.59042 -3.25557,-1.64933 -28.61336,-1.64933 -29.0537,0 -29.60178,0.084 -32.59751,4.9972 -1.51402,2.48307 -1.5488,4.74495 -1.55169,100.93253 -0.003,93.78016 0.065,98.51926 1.44676,101.09573 2.92606,5.45596 3.78349,5.603 32.6536,5.59967 24.14476,-0.003 25.95944,-0.10171 28.32537,-1.54432 z M 101.26631,130.24068 c 8.57186,-1.80767 15.04362,-5.37659 21.44561,-11.82639 6.28893,-6.3359 10.06933,-12.83735 11.84515,-20.371015 C 138.16479,82.73794 133.55162,67.19695 122.23051,56.51719 104.75722,40.033778 78.671874,40.182628 61.993584,56.860918 53.329745,65.524757 49.052438,75.751754 49.052438,87.803066 c 0,16.826014 9.172125,31.544904 24.159833,38.770284 10.020432,4.83072 17.747472,5.84083 28.054039,3.66733 z"
       id="path144" />
  </g>
</svg>
