<?xml version="1.0" encoding="UTF-8" standalone="no"?>
<!-- Created with Inkscape (http://www.inkscape.org/) -->

<svg
   version="1.1"
   id="svg2"
   width="222"
   height="166.66667"
   viewBox="0 0 222 166.66667"
   sodipodi:docname="mail.svg"
   inkscape:version="1.1 (c4e8f9ed74, 2021-05-24)"
   xmlns:inkscape="http://www.inkscape.org/namespaces/inkscape"
   xmlns:sodipodi="http://sodipodi.sourceforge.net/DTD/sodipodi-0.dtd"
   xmlns="http://www.w3.org/2000/svg"
   xmlns:svg="http://www.w3.org/2000/svg">
  <defs
     id="defs6" />
  <sodipodi:namedview
     id="namedview4"
     pagecolor="#505050"
     bordercolor="#eeeeee"
     borderopacity="1"
     inkscape:pageshadow="0"
     inkscape:pageopacity="0"
     inkscape:pagecheckerboard="0"
     showgrid="false"
     inkscape:zoom="2.3310811"
     inkscape:cx="95.020289"
     inkscape:cy="75.501449"
     inkscape:window-width="1920"
     inkscape:window-height="1038"
     inkscape:window-x="0"
     inkscape:window-y="42"
     inkscape:window-maximized="1"
     inkscape:current-layer="g84" />
  <g
     inkscape:groupmode="layer"
     inkscape:label="Image"
     id="g8">
    <g
       id="g84"
       style="fill:#d40000;stroke:#d40000">
      <path
         style="fill:#d40000;fill-opacity:1;stroke:#d40000;stroke-width:0.666667"
         d="m 13.333333,158.92664 c 0,-0.59035 9.675,-10.65798 21.5,-22.37252 11.825,-11.71454 26.788447,-26.56689 33.252107,-33.00522 8.967453,-8.932325 11.99132,-11.568971 12.76168,-11.127485 0.555267,0.31822 5.48236,4.928587 10.949093,10.245255 4.721579,4.54389 9.172807,9.18371 15.028077,12.07778 10.81964,2.56271 18.12527,-6.91712 24.3147,-13.15706 5.57644,-5.639735 10.37644,-10.259935 10.66666,-10.267122 0.90662,-0.02245 66.86102,66.845822 66.86102,67.787452 C 208.66667,159.84893 192.13043,160 111,160 21.662773,160 13.333333,159.9085 13.333333,158.92664 Z m 194.101977,0.0825 c 0.17832,-0.17831 -14.47113,-15.25331 -32.55432,-33.5 l -32.87853,-33.175795 -9.20591,9.333335 C 121.42169,113.19897 117.12739,116 110.82194,116 102.26296,116.03509 96.153748,108.26017 91.231367,103.46664 85.718,98.076655 81.000227,93.588255 80.74742,93.492409 c -1.064047,-0.4034 -66.851171,65.004111 -65.812892,65.433141 0.992294,0.41002 192.091372,0.493 192.500782,0.0836 z M 6.3985105,149.50962 C 6.1793297,149.29044 6,119.76112 6,83.888888 6,8.8941562 5.2915497,15.249408 12.777925,23.086582 15.100066,25.517536 21.8,32.379014 27.666667,38.334311 c 37.317872,37.881651 44.169086,44.942751 44.5369,45.901264 0.298166,0.777007 -8.31876,9.800054 -31.505188,32.990045 C 23.144794,134.7819 8.3359767,149.31758 7.7898953,149.52714 7.2438147,149.73668 6.6176912,149.7288 6.3985105,149.5096 Z M 71.182413,84.615755 C 70.571333,83.012008 8.503674,20.022046 7.9013153,20.394324 7.301694,20.76491 7.083564,147.52801 7.6815187,148.12596 8.125286,148.56974 71.4273,85.258435 71.182413,84.615755 Z M 202.04203,138.39924 c -6.43978,-6.38041 -21.09064,-20.88777 -32.55746,-32.23858 -16.93555,-16.764192 -20.75999,-20.874592 -20.37575,-21.899245 0.26016,-0.693773 4.89916,-5.761413 10.30889,-11.261414 5.40974,-5.5 16.07882,-16.415767 23.70908,-24.25726 C 211.03917,20.057656 213.92468,17.208094 214.6225,17.639372 215.69733,18.303648 215.61726,150 214.54203,150 c -0.43521,0 -6.06021,-5.22034 -12.5,-11.60076 z M 214,84.000002 C 214,48.425936 213.74381,20 213.42321,20 212.97419,20 186.04753,47.140387 152.16667,81.742748 150.975,82.959795 150,84.326148 150,84.779088 c 0,0.848787 62.60605,63.157122 63.5,63.198032 0.275,0.0126 0.5,-28.77712 0.5,-63.977118 z M 107.0144,103.6231 C 105.03937,102.59326 81.114673,78.703235 41.666667,38.370092 30.3,26.748379 19.155919,15.404732 16.902044,13.161988 14.639914,10.911031 12.954588,8.6920735 13.140036,8.2088022 13.415295,7.4914895 31.050432,7.3333335 110.75891,7.3333335 c 84.73057,0 97.33119,0.1257486 97.65692,0.9745713 0.24122,0.6286227 -2.07354,3.4301232 -6.52093,7.8921122 -3.79219,3.804648 -21.5949,21.859232 -39.56157,40.121297 -17.96666,18.262067 -35.58231,36.121995 -39.14588,39.688735 -8.5083,8.515861 -11.6266,9.983711 -16.17305,7.613051 z m 7.68094,-1.31998 c 1.43819,-0.73066 19.85536,-18.932658 33.02226,-32.636452 2.11381,-2.2 16.51557,-16.801509 32.00393,-32.447798 C 195.20989,21.572582 207.70869,8.5975815 207.49665,8.3855362 206.82376,7.7126508 13.870498,7.9485288 14.111111,8.6219428 14.292625,9.1299515 43.778973,39.150869 98.358847,94.397035 c 9.409243,9.524105 11.325893,10.451685 16.336493,7.906085 z"
         id="path88"
         sodipodi:nodetypes="sssscccsssssscsccssssssssssssssssssssssssssssssssssssssssssssssss" />
      <path
         style="fill:#ff0000;fill-opacity:1;stroke-width:0.666667;stroke:#ff0000"
         d="m 14.934528,158.92555 c -1.038279,-0.42903 64.748845,-65.836541 65.812892,-65.433141 0.252807,0.09585 4.97058,4.584246 10.483947,9.974231 5.513366,5.38999 11.229823,10.41499 12.703243,11.16667 1.86324,0.95056 3.96032,1.36669 6.88733,1.36669 6.30545,0 10.59975,-2.80103 21.97461,-14.33333 l 9.20591,-9.333335 32.87853,33.175795 c 18.08319,18.24669 32.73264,33.32169 32.55432,33.5 -0.40941,0.40942 -191.508488,0.32644 -192.500782,-0.0836 z M 7.6815187,148.12596 C 7.083564,147.52801 7.301694,20.76491 7.9013153,20.394324 8.503674,20.022046 70.571333,83.012008 71.182413,84.615755 71.4273,85.258435 8.125286,148.56974 7.6815187,148.12596 Z M 181.5,116.77843 C 164.175,99.631735 150,85.232028 150,84.779088 c 0,-0.45294 0.975,-1.819293 2.16667,-3.03634 C 186.04753,47.140387 212.97419,20 213.42321,20 213.74381,20 214,48.425936 214,84.000002 214,119.2 213.775,147.9897 213.5,147.97712 c -0.275,-0.0126 -14.675,-14.052 -32,-31.19869 z M 108,102.87683 c -1.28333,-0.59552 -5.62185,-4.411428 -9.641153,-8.479795 C 43.778973,39.150869 14.292625,9.1299515 14.111111,8.6219428 13.870498,7.9485288 206.82376,7.7126508 207.49665,8.3855362 207.70869,8.5975815 195.20989,21.572582 179.72153,37.21887 164.23317,52.865159 149.83141,67.466668 147.7176,69.666668 c -2.11381,2.2 -10.02711,10.249407 -17.5851,17.887574 C 113.95955,103.89874 112.45173,104.94262 108,102.87683 Z"
         id="path86" />
    </g>
  </g>
</svg>
